# xmcd
#
# Track frame offsets: 
#        150
#        15093
#        28648
#        47038
#        58265
#        74403
#        91868
#        109668
#        130867
#        145157
#        171631
#        191354
#
# Disc length: 2703 seconds
#
# Revision: 0
# Processed by: cddbd v1.5.1PL2 Copyright (c) Steve Scherf et al.
# Submitted via: ExactAudioCopy v0.95a3
#
DISCID=a10a8d0c
DTITLE=Jack the Fiddler - Don't shoot the fiddler
DYEAR=2004
DGENRE=Country
TTITLE0=St. Anna Reel, Snowflake Breakdown
TTITLE1=Green Hills
TTITLE2=Blue Bayou
TTITLE3=Paperboy
TTITLE4=Little Cabin Home on the Hill
TTITLE5=Duellin' Banjos
TTITLE6=Swamp Walk
TTITLE7=Maggie's Waltz
TTITLE8=Don't shoot the fiddler
TTITLE9=Orange Blossom Special
TTITLE10=The fiddler needs some rest
TTITLE11=New Spirit
EXTD=
EXTT0=
EXTT1=
EXTT2=
EXTT3=
EXTT4=
EXTT5=
EXTT6=
EXTT7=
EXTT8=
EXTT9=
EXTT10=
EXTT11=
PLAYORDER=
